<svg id="Group_94" data-name="Group 94" xmlns="http://www.w3.org/2000/svg" width="93.565" height="18.712" viewBox="0 0 93.565 18.712">
  <path id="Path_223" data-name="Path 223" d="M715.265,82.764a2.309,2.309,0,0,1-.755.94.6.6,0,0,0-.2.539,2.535,2.535,0,0,0-.863-1.987c-.077-.03.062.308.369.956a1.606,1.606,0,0,1,.2.878,2.8,2.8,0,0,1,.232.845,1.711,1.711,0,0,1-.107.956,2.636,2.636,0,0,1,.878-.755.652.652,0,0,0,.107-.077C715.573,84.46,715.265,82.764,715.265,82.764Zm-.724,2.389c-.632.016.031-1.4.6-1.773C715.157,83.4,715.173,85.138,714.541,85.154Z" transform="translate(-629.239 -77.043)" fill="#f1c40f"/>
  <path id="Path_219" data-name="Path 219" d="M708.611,108.512H708.6a1.45,1.45,0,0,1-1-.678,2.176,2.176,0,0,1-.185-1.433,1.507,1.507,0,0,0,.447.446c.062.046.107.077.154.107.494.262.6.416.632.494A1.583,1.583,0,0,0,708.611,108.512Z" transform="translate(-623.91 -98.274)" fill="#f1c40f"/>
  <path id="Path_220" data-name="Path 220" d="M711.69,109.21h0l.016.016Z" transform="translate(-627.712 -100.745)" fill="#f1c40f"/>
  <path id="Path_221" data-name="Path 221" d="M709.815,93.3a2.25,2.25,0,0,0-.617-.416.557.557,0,0,1-.232-.232,2.063,2.063,0,0,1-.216-.555,5.357,5.357,0,0,1,.046-1.4l.016.016a2.757,2.757,0,0,0,.339.37c.031.031.062.046.093.077a1.676,1.676,0,0,1,.617.863,1.427,1.427,0,0,1,.062.355A1.489,1.489,0,0,1,709.815,93.3Z" transform="translate(-625.099 -84.46)" fill="#f1c40f"/>
  <path id="Path_222" data-name="Path 222" d="M711.69,109.21h0l.016.016Z" transform="translate(-627.712 -100.745)" fill="#f1c40f"/>
  <path id="Path_224" data-name="Path 224" d="M719.92,105v.293c-.031.755-.232,2.034-1.309,2.034h-.046a1.437,1.437,0,0,1-.016-1.063,2.45,2.45,0,0,1,.965-.956,1.035,1.035,0,0,0,.169-.107C719.782,105.121,719.859,105.062,719.92,105Z" transform="translate(-633.663 -97.043)" fill="#f1c40f"/>
  <path id="Path_218" data-name="Path 218" d="M670.739,96.593c-.508-1.511-3.189.232-6.779,1.386a19.575,19.575,0,0,1-2.233.6h0a5.5,5.5,0,0,0,.339-.8.2.2,0,0,0-.016-.121c-.016-.016-.016-.031-.031-.046s-.016-.031-.046-.031a.234.234,0,0,0-.241.139c-.046.107-.308.8-.339.894-.016.016-.016.031-.031.031a7.445,7.445,0,0,1-5.189-.462h0a1.918,1.918,0,0,1-.339-.241c-1.032-.986-.724-2.574-.539-3.252.016-.062.046-.121.062-.185l.046-.139h0a1.747,1.747,0,0,0,.093-.385c0-.046.016-.077.016-.121.031-.232-.185-.077-.241-.031l-.016.016c-1.327,1.88-1.648,5.178,1.263,6.5s7.919-.909,9.075-1.279,3.745-1.681,3.946-1.37-.2.755-1.063,1.787c-1.741,2.051-1.079,2.635-1.079,2.635a18.332,18.332,0,0,1,1.864-2.542C671.217,97.472,670.739,96.593,670.739,96.593Z" transform="translate(-577.225 -87.142)" fill="#f1c40f"/>
  <g id="Group_92" data-name="Group 92" transform="translate(0 0)">
    <path id="Path_69" data-name="Path 69" d="M25.475,66.548H24.039v4.091H21.3V66.591a6.386,6.386,0,0,0-1.175-.087c-.566-.043-1.044-.043-1.436-.043a6.406,6.406,0,0,0-1.783.217,1.569,1.569,0,0,0-.913.827,4.241,4.241,0,0,0-.261,1.653,3.678,3.678,0,0,0,.3,1.741,1.689,1.689,0,0,0,.913.827,5.531,5.531,0,0,0,1.7.217h6.878V66.548Zm-5.61,4.091H18.687a2.285,2.285,0,0,1-.874-.132.79.79,0,0,1-.483-.436,2.429,2.429,0,0,1-.174-.913,2.293,2.293,0,0,1,.13-.87.79.79,0,0,1,.483-.436,2.541,2.541,0,0,1,.913-.13,9.464,9.464,0,0,1,1.131.043v2.872Z" transform="translate(-15.73 -63.154)" fill="#f1c40f"/>
    <path id="Path_70" data-name="Path 70" d="M108.077,72.8a1.626,1.626,0,0,1-.174.87.59.59,0,0,1-.566.3h-.348v1.306a7.549,7.549,0,0,0,.783.043,1.5,1.5,0,0,0,1.349-.74,3.879,3.879,0,0,0,.436-2.045V67.19h-1.436V72.8Z" transform="translate(-95.978 -63.796)" fill="#f1c40f"/>
    <path id="Path_71" data-name="Path 71" d="M158.939,55.426h-2.784a4.842,4.842,0,0,1-.74-.087,9.683,9.683,0,0,0,1.175-1.219,1.879,1.879,0,0,0,.392-1.132l.046-.952a6.619,6.619,0,0,0-1.349-.566,5.4,5.4,0,0,0-1.61-.261,5.189,5.189,0,0,0-1.61.261,5.711,5.711,0,0,0-1.353.566l.043.957a1.879,1.879,0,0,0,.392,1.132,7.424,7.424,0,0,0,1.175,1.219,4.844,4.844,0,0,1-.74.087h-2.568v-3.92l-.566-.043c-.436-.043-1-.087-1.61-.087a5.634,5.634,0,0,0-1.653.217,1.92,1.92,0,0,0-.957.783,3.14,3.14,0,0,0-.3,1.569,5.117,5.117,0,0,0,.174,1.479h-2.219V49.16H140.84v7.572h11.181a4.289,4.289,0,0,0,1.044-.13,9.791,9.791,0,0,0,1.044-.349,5.87,5.87,0,0,0,1.044.349,4.933,4.933,0,0,0,1.086.13h4.223V49.16h-1.436v6.266Zm-11.05,0h-1.914a3.442,3.442,0,0,1-.13-.566,2.882,2.882,0,0,1-.043-.653,2.922,2.922,0,0,1,.127-1,.778.778,0,0,1,.392-.436,2.155,2.155,0,0,1,.87-.13,5.031,5.031,0,0,1,.74.043v2.742Zm6.178-.653a3.157,3.157,0,0,1-1.131-1,1.722,1.722,0,0,1-.392-1,4.87,4.87,0,0,1,1.523-.261,4.927,4.927,0,0,1,1.569.261,1.62,1.62,0,0,1-.392.957A3.484,3.484,0,0,1,154.066,54.773Z" transform="translate(-125.744 -47.941)" fill="#f1c40f"/>
    <rect id="Rectangle_31" data-name="Rectangle 31" width="1.436" height="7.572" transform="translate(36.371 1.219)" fill="#f1c40f"/>
    <path id="Path_72" data-name="Path 72" d="M363.747,66.461a6.406,6.406,0,0,0-1.783.217,1.569,1.569,0,0,0-.913.827,4.241,4.241,0,0,0-.261,1.653,3.677,3.677,0,0,0,.3,1.741,1.689,1.689,0,0,0,.913.827,5.531,5.531,0,0,0,1.7.217h2.7V66.548a6.386,6.386,0,0,0-1.175-.087Zm1.17,4.177h-1.17a2.285,2.285,0,0,1-.87-.13.79.79,0,0,1-.483-.436,2.428,2.428,0,0,1-.174-.913,2.292,2.292,0,0,1,.13-.87.79.79,0,0,1,.483-.436,2.541,2.541,0,0,1,.913-.13,9.462,9.462,0,0,1,1.131.043v2.872Z" transform="translate(-319.153 -63.154)" fill="#f1c40f"/>
    <path id="Path_73" data-name="Path 73" d="M417.393,65.384A4.059,4.059,0,0,0,416,65.6a1.751,1.751,0,0,0-.827.913,4.627,4.627,0,0,0-.3,1.958c0,1.7.74,2.524,2.262,2.524h1.262a3.672,3.672,0,0,1-.087.827.577.577,0,0,1-.3.392.928.928,0,0,1-.523.13,13.018,13.018,0,0,1-1.74-.174v1.306a15.331,15.331,0,0,0,1.87.217,1.978,1.978,0,0,0,1.523-.6,2.757,2.757,0,0,0,.653-1.392,10.18,10.18,0,0,0,.13-1.653v-4.4a6.8,6.8,0,0,0-1.17-.174C418.264,65.428,417.828,65.384,417.393,65.384Zm1.086,4.308h-.913a1.043,1.043,0,0,1-.957-.392,1.589,1.589,0,0,1-.217-.913,3.515,3.515,0,0,1,.13-1.086.8.8,0,0,1,.436-.483,1.732,1.732,0,0,1,.74-.13,4.729,4.729,0,0,1,.783.043V69.69Z" transform="translate(-366.708 -62.207)" fill="#f1c40f"/>
    <path id="Path_74" data-name="Path 74" d="M475.661,55.743H472.7V51.652h-1.436v4.091h-3.393V51.652h-1.436v5.613a1.626,1.626,0,0,1-.174.87.59.59,0,0,1-.566.3h-.348v1.306a7.548,7.548,0,0,0,.783.043,1.471,1.471,0,0,0,1.349-.7,4.135,4.135,0,0,0,.483-2h9.267V49.52H475.8v6.223Z" transform="translate(-411.097 -48.258)" fill="#f1c40f"/>
    <rect id="Rectangle_32" data-name="Rectangle 32" width="1.436" height="7.572" transform="translate(67.783 1.219)" fill="#f1c40f"/>
    <rect id="Rectangle_33" data-name="Rectangle 33" width="1.436" height="1.349" transform="translate(21.665 1.175)" fill="#f1c40f"/>
    <rect id="Rectangle_34" data-name="Rectangle 34" width="1.436" height="1.349" transform="translate(19.534 1.175)" fill="#f1c40f"/>
    <rect id="Rectangle_35" data-name="Rectangle 35" width="1.436" height="1.349" transform="translate(3.393 1.175)" fill="#f1c40f"/>
    <rect id="Rectangle_36" data-name="Rectangle 36" width="1.436" height="1.349" transform="translate(1.261 1.175)" fill="#f1c40f"/>
    <rect id="Rectangle_37" data-name="Rectangle 37" width="1.436" height="1.349" transform="translate(44.985 1.175)" fill="#f1c40f"/>
    <rect id="Rectangle_38" data-name="Rectangle 38" width="1.436" height="1.349" transform="translate(42.897 1.175)" fill="#f1c40f"/>
    <rect id="Rectangle_39" data-name="Rectangle 39" width="1.219" height="1.175" transform="translate(61.126 1.437)" fill="#f1c40f"/>
    <rect id="Rectangle_40" data-name="Rectangle 40" width="1.219" height="1.175" transform="translate(59.299 1.437)" fill="#f1c40f"/>
    <rect id="Rectangle_41" data-name="Rectangle 41" width="1.131" height="1.045" transform="translate(60.3)" fill="#f1c40f"/>
  </g>
  <g id="Group_93" data-name="Group 93" transform="translate(0 13.361)">
    <path id="Path_75" data-name="Path 75" d="M16.774,151.773v1.481H18.6v.913H16.774v1.785H15.73V150.86h3.258v.913Z" transform="translate(-15.73 -150.731)" fill="#f1c40f"/>
    <path id="Path_76" data-name="Path 76" d="M47.245,154.836a1.51,1.51,0,0,1-.653-.87,4.623,4.623,0,0,1-.217-1.479,4.917,4.917,0,0,1,.217-1.523,1.509,1.509,0,0,1,.653-.87,2.516,2.516,0,0,1,1.219-.3,2.03,2.03,0,0,1,1.219.3,1.509,1.509,0,0,1,.653.87,4.717,4.717,0,0,1,.217,1.523,4.623,4.623,0,0,1-.217,1.479,1.664,1.664,0,0,1-.653.87,2.567,2.567,0,0,1-1.262.3A1.961,1.961,0,0,1,47.245,154.836Zm1.87-.783a.807.807,0,0,0,.3-.522,5.677,5.677,0,0,0,.087-1,5.285,5.285,0,0,0-.087-1,.851.851,0,0,0-.348-.566.921.921,0,0,0-.6-.174.822.822,0,0,0-.6.174.808.808,0,0,0-.3.566,6.112,6.112,0,0,0-.087,1,5.542,5.542,0,0,0,.087.957,1.012,1.012,0,0,0,.3.566,1.049,1.049,0,0,0,.636.174A.921.921,0,0,0,49.116,154.053Z" transform="translate(-42.677 -149.789)" fill="#f1c40f"/>
    <path id="Path_77" data-name="Path 77" d="M88.56,150.86h2c1.219,0,1.783.566,1.783,1.7a1.667,1.667,0,0,1-.74,1.479l.74,1.958H91.215l-.6-1.7H89.6v1.7H88.56Zm2,2.524a.652.652,0,0,0,.522-.217.846.846,0,0,0,.174-.6.921.921,0,0,0-.174-.6.752.752,0,0,0-.566-.217H89.56v1.61h1Z" transform="translate(-79.772 -150.731)" fill="#f1c40f"/>
    <path id="Path_78" data-name="Path 78" d="M124.879,151.773H123.53v-.913h3.741v.913h-1.348v4.177h-1.044Z" transform="translate(-110.522 -150.731)" fill="#f1c40f"/>
    <path id="Path_79" data-name="Path 79" d="M160.043,155.287a1.856,1.856,0,0,1-.483-1.392V150.5H160.6v3.394a.913.913,0,1,0,1.827,0V150.5h1.044v3.394a1.919,1.919,0,0,1-.483,1.392,2.074,2.074,0,0,1-1.479.436A2.051,2.051,0,0,1,160.043,155.287Z" transform="translate(-142.205 -150.414)" fill="#f1c40f"/>
    <path id="Path_80" data-name="Path 80" d="M204.781,150.86v5.091h-1.7l-1.262-4.223h-.087v4.223H200.69V150.86h1.74l1.219,4.223h.087V150.86Z" transform="translate(-178.372 -150.731)" fill="#f1c40f"/>
    <path id="Path_81" data-name="Path 81" d="M244.644,151.773v1.175h1.828v.87h-1.828v1.219h2.262v.913H243.6V150.86h3.306v.913Z" transform="translate(-216.104 -150.731)" fill="#f1c40f"/>
    <path id="Path_82" data-name="Path 82" d="M291.91,150.86h2c1.219,0,1.783.566,1.783,1.7a1.667,1.667,0,0,1-.74,1.479l.74,1.958h-1.131l-.6-1.7h-1v1.7h-1.044V150.86Zm1.958,2.524a.652.652,0,0,0,.522-.217.846.846,0,0,0,.174-.6.921.921,0,0,0-.174-.6.752.752,0,0,0-.566-.217h-.957v1.61h1Z" transform="translate(-258.585 -150.731)" fill="#f1c40f"/>
    <path id="Path_83" data-name="Path 83" d="M331.184,151.773v1.175h1.827v.87h-1.827v1.219h2.262v.913H330.14V150.86h3.306v.913Z" transform="translate(-292.202 -150.731)" fill="#f1c40f"/>
    <path id="Path_84" data-name="Path 84" d="M364.194,155.037h-1.783l-.217.913H361.15l1.131-5.091h1.958l1.131,5.091h-1Zm-.74-3.307h-.348l-.527,2.437h1.392Z" transform="translate(-319.47 -150.731)" fill="#f1c40f"/>
    <path id="Path_85" data-name="Path 85" d="M405.072,155.4v.913H402.2V151.22h1.044V155.4Z" transform="translate(-355.567 -151.047)" fill="#f1c40f"/>
    <path id="Path_86" data-name="Path 86" d="M424.509,151.773H423.16v-.913H426.9v.913h-1.347v4.177H424.51Z" transform="translate(-373.998 -150.731)" fill="#f1c40f"/>
    <path id="Path_87" data-name="Path 87" d="M456.439,153.906l-1.569-3.046H456l.957,2.045.957-2.045h1.131l-1.569,3.046v2.045h-1.044v-2.045Z" transform="translate(-401.881 -150.731)" fill="#f1c40f"/>
    <path id="Path_88" data-name="Path 88" d="M506.557,155.153a1.451,1.451,0,0,1-.6-.827,4.857,4.857,0,0,1-.174-1.479,5.318,5.318,0,0,1,.174-1.61,1.366,1.366,0,0,1,.6-.827,2.142,2.142,0,0,1,1.175-.261,7.1,7.1,0,0,1,1.523.217l-.043.827a7.281,7.281,0,0,0-1.219-.13,1.41,1.41,0,0,0-.7.13.813.813,0,0,0-.348.483,5.132,5.132,0,0,0-.087.957v.261a4.764,4.764,0,0,0,.087.957.915.915,0,0,0,.3.483,1.525,1.525,0,0,0,.7.13c.348,0,.74-.043,1.219-.087l.043.827a6.378,6.378,0,0,1-1.436.174A1.819,1.819,0,0,1,506.557,155.153Z" transform="translate(-446.648 -150.106)" fill="#f1c40f"/>
    <path id="Path_89" data-name="Path 89" d="M540.125,154.836a1.51,1.51,0,0,1-.653-.87,4.62,4.62,0,0,1-.217-1.479,4.916,4.916,0,0,1,.217-1.523,1.509,1.509,0,0,1,.653-.87,2.516,2.516,0,0,1,1.219-.3,2.03,2.03,0,0,1,1.219.3,1.51,1.51,0,0,1,.653.87,4.717,4.717,0,0,1,.217,1.523,4.622,4.622,0,0,1-.217,1.479,1.664,1.664,0,0,1-.653.87,2.567,2.567,0,0,1-1.262.3A2.054,2.054,0,0,1,540.125,154.836Zm1.87-.783a.807.807,0,0,0,.3-.522,5.678,5.678,0,0,0,.087-1,5.286,5.286,0,0,0-.087-1,.851.851,0,0,0-.347-.566.921.921,0,0,0-.6-.174.822.822,0,0,0-.6.174.808.808,0,0,0-.315.565,6.112,6.112,0,0,0-.087,1,5.546,5.546,0,0,0,.087.957,1.013,1.013,0,0,0,.3.566,1.049,1.049,0,0,0,.653.174.859.859,0,0,0,.612-.173Z" transform="translate(-476.084 -149.789)" fill="#f1c40f"/>
    <path id="Path_90" data-name="Path 90" d="M580.72,183h1.086v1.262H580.72Z" transform="translate(-512.546 -178.993)" fill="#f1c40f"/>
  </g>
</svg>
